# xmcd CD database file
#
# Track frame offsets:
#	150
#	35757
#	46700
#	55117
#	78540
#	103765
#	120665
#	144405
#	154810
#	164867
#	194562
#
# Disc length: 2745 seconds
#
# Revision: 0
# Processed by: cddbd v1.5.1PL2 Copyright (c) Steve Scherf et al.
# Submitted via: CDex 1.51
#
DISCID=9a0ab70b
DTITLE=高田元太郎 - ROCKS ON THE GUTS 天国への階段
DYEAR=2005
DGENRE=DOMESTIC(J-POPS)
TTITLE0=Stairway to heaven 天国への階段
TTITLE1=Black mountain side
TTITLE2=Dee
TTITLE3=Cause we've ended as lovers 哀しみの恋人たち
TTITLE4=More than words
TTITLE5=Mood for a day
TTITLE6=Discipline
TTITLE7=Bijou pleasurette
TTITLE8=Caravan
TTITLE9=Catch the rainbow 虹をつかもう
TTITLE10=Crossroads
EXTD=YEAR: 2005
EXTT0=
EXTT1=
EXTT2=
EXTT3=
EXTT4=
EXTT5=
EXTT6=
EXTT7=
EXTT8=
EXTT9=
EXTT10=
PLAYORDER=
